<svg width="48" height="48" viewBox="0 0 48 48" fill="none" xmlns="http://www.w3.org/2000/svg">
<g clip-path="url(#clip0_16618_3904)">
<path fill-rule="evenodd" clip-rule="evenodd" d="M23.625 34.5C20.4167 34.5 17.7917 31.8 17.7917 28.5C17.7917 25.2 20.4167 22.5 23.625 22.5C26.8333 22.5 29.4583 25.2 29.4583 28.5C29.4583 31.8 26.8333 34.5 23.625 34.5ZM23.625 15C16.4063 15 10.5 21.075 10.5 28.5C10.5 35.925 16.4063 42 23.625 42C30.8438 42 36.75 35.925 36.75 28.5C36.75 21.075 30.8438 15 23.625 15Z" fill="#2585A3"/>
<path fill-rule="evenodd" clip-rule="evenodd" d="M29.4583 29.1V29.025C29.2396 32.1 26.6875 34.5 23.625 34.5C20.4167 34.5 17.7917 31.8 17.7917 28.5C17.7917 25.2 20.4167 22.5 23.625 22.5C24.5729 22.5 25.5208 22.725 26.3229 23.175C21.5104 20.55 10.5 20.325 10.5 28.5C10.5 35.925 16.4063 42 23.625 42C30.8438 42 36.75 35.925 36.75 28.5C36.75 28.425 36.75 22.5 36.75 19.5C36.75 24 33.5417 28.65 29.4583 29.1Z" fill="#3ABEB9"/>
<path fill-rule="evenodd" clip-rule="evenodd" d="M29.4583 9.75V27.75C29.4583 27.825 29.4583 28.425 29.4583 28.5C29.4583 31.8 26.8333 34.5 23.625 34.5C34.5625 34.5 36.75 27 36.75 24.75V9.75C36.75 7.65 35.1458 6 33.1042 6C31.0625 6 29.4583 7.65 29.4583 9.75Z" fill="#1BE2CA"/>
</g>
<defs>
<clipPath id="clip0_16618_3904">
<rect width="26.25" height="36" fill="white" transform="translate(10.5 6)"/>
</clipPath>
</defs>
</svg>
